<?xml version="1.0" standalone="no"?>
<!DOCTYPE svg PUBLIC "-//W3C//DTD SVG 20010904//EN"
 "http://www.w3.org/TR/2001/REC-SVG-20010904/DTD/svg10.dtd">
<svg version="1.0" xmlns="http://www.w3.org/2000/svg"
 width="806.000000pt" height="806.000000pt" viewBox="0 0 806.000000 806.000000"
 preserveAspectRatio="xMidYMid meet">
<metadata>
Created by potrace 1.14, written by Peter Selinger 2001-2017
</metadata>
<g transform="translate(0.000000,806.000000) scale(0.100000,-0.100000)"
fill="#000000" stroke="none">
<path d="M3788 8055 c-1 -1 -45 -6 -96 -9 -51 -4 -102 -9 -112 -11 -10 -2 -45
-6 -77 -10 -32 -3 -69 -8 -83 -10 -49 -10 -75 -15 -115 -21 -22 -3 -44 -7 -50
-8 -5 -1 -37 -8 -70 -15 -167 -36 -453 -121 -605 -180 -166 -65 -435 -194
-545 -261 -37 -22 -69 -40 -72 -40 -4 0 -226 -146 -299 -197 -60 -43 -129 -97
-132 -105 -2 -5 -8 -8 -13 -8 -5 0 -23 -14 -39 -30 -17 -17 -30 -28 -30 -25 0
3 -15 -8 -32 -24 -18 -16 -62 -56 -97 -88 -102 -92 -246 -239 -340 -348 -84
-97 -291 -367 -291 -380 0 -4 -11 -21 -24 -38 -70 -94 -216 -355 -304 -547
-29 -63 -142 -345 -147 -365 -1 -5 -4 -17 -7 -25 -85 -234 -171 -655 -195
-950 -15 -182 -8 -634 12 -780 2 -14 6 -47 9 -75 3 -27 9 -63 11 -80 3 -16 10
-57 16 -90 15 -87 16 -93 33 -170 14 -62 41 -172 50 -200 1 -5 8 -30 15 -55
85 -309 253 -688 441 -995 57 -94 170 -258 184 -267 6 -5 7 -8 1 -8 -6 0 -6
-3 0 -8 6 -4 35 -38 65 -77 30 -38 62 -77 70 -87 8 -10 29 -34 45 -54 73 -89
274 -296 361 -372 27 -23 59 -52 71 -63 12 -11 62 -52 110 -90 48 -39 96 -76
105 -84 16 -13 154 -110 185 -130 9 -5 44 -28 78 -50 86 -55 159 -98 164 -95
2 1 7 -2 10 -7 5 -8 344 -182 356 -183 6 -1 74 -28 100 -40 71 -33 414 -150
485 -165 8 -1 35 -8 60 -15 25 -7 54 -14 65 -15 11 -2 49 -10 85 -18 61 -14
271 -49 370 -61 111 -15 252 -21 465 -21 204 0 302 5 440 20 22 3 59 7 83 9
23 3 68 10 100 15 31 6 75 13 97 17 22 3 58 10 80 15 22 5 54 12 70 15 17 3
64 15 105 26 41 11 86 22 99 24 13 3 32 9 43 15 10 5 18 8 18 5 0 -2 64 18
143 45 78 28 147 51 152 53 51 16 241 100 368 164 136 68 254 134 352 198 33
21 68 43 77 49 36 21 208 144 232 166 30 27 45 39 51 39 3 0 13 8 23 17 10 10
40 36 66 58 242 199 546 537 721 800 33 50 66 96 73 103 6 7 12 20 12 28 0 8
5 14 10 14 6 0 10 5 10 11 0 6 13 29 29 52 15 23 52 87 81 142 29 55 56 104
61 110 5 5 9 17 9 27 0 10 5 18 10 18 6 0 10 4 10 9 0 5 12 35 27 67 15 33 28
61 28 64 0 3 8 21 17 40 10 19 26 60 38 90 11 30 25 64 30 75 11 22 99 288
107 320 2 11 5 25 6 30 2 6 6 16 10 23 5 6 6 12 3 12 -3 0 1 21 9 48 13 45 17
59 30 127 3 17 8 38 11 47 3 9 6 25 8 35 2 10 7 36 11 58 13 73 20 117 30 200
4 28 8 61 11 75 26 159 25 739 -1 903 -2 12 -6 45 -10 72 -3 28 -11 79 -17
115 -5 36 -12 74 -13 85 -7 43 -16 89 -19 94 -2 3 -7 22 -10 41 -6 35 -30 134
-60 245 -21 78 -113 348 -136 400 -10 22 -24 55 -31 74 -37 93 -227 463 -241
469 -5 2 -8 8 -8 14 0 6 -13 30 -30 55 -16 24 -30 48 -30 53 0 4 -3 10 -7 12
-5 2 -34 42 -66 91 -49 72 -96 137 -154 212 -39 49 -99 121 -105 123 -5 2 -8
10 -8 18 0 9 -4 12 -10 9 -5 -3 -10 -2 -10 4 0 16 -190 215 -311 326 -86 79
-180 159 -198 169 -9 5 -20 15 -26 21 -12 14 -152 118 -215 160 -25 17 -47 32
-50 35 -3 4 -23 17 -45 30 -22 13 -42 26 -45 29 -3 4 -18 13 -35 21 -16 8 -34
19 -40 23 -42 35 -380 206 -530 269 -60 25 -159 62 -220 83 -60 20 -117 39
-125 42 -8 3 -19 7 -25 9 -5 1 -53 14 -105 29 -52 14 -106 28 -120 31 -14 2
-31 7 -39 9 -17 6 -158 36 -186 40 -11 1 -33 5 -50 8 -27 6 -78 14 -145 22
-14 2 -54 6 -90 10 -36 4 -76 9 -90 12 -27 5 -586 13 -592 8z"/>
</g>
</svg>
